<svg width="14" height="14" viewBox="0 0 20 20" fill="none" xmlns="http://www.w3.org/2000/svg">
<g clip-path="url(#clip0_5131_3518)">
<path fill-rule="evenodd" clip-rule="evenodd" d="M11.043 15.8335H4.16667V6.66683H15.8333V11.1909H17.5V4.16683C17.5 3.24183 16.75 2.50016 15.8333 2.50016H15V0.833496H13.3333V2.50016H6.66667V0.833496H5V2.50016H4.16667C3.24167 2.50016 2.5 3.24183 2.5 4.16683V15.8335C2.5 16.2755 2.67559 16.6994 2.98816 17.012C3.30072 17.3246 3.72464 17.5002 4.16667 17.5002H11.043V15.8335Z" fill="#1669BB"/>
<path d="M20.1777 17.3964H20.3527V17.2214V16.2214V16.0464H20.1777H17.3527V13.2214V13.0464H17.1777H16.1777H16.0027V13.2214V16.0464H13.1777H13.0027V16.2214V17.2214V17.3964H13.1777H16.0027V20.2214V20.3964H16.1777H17.1777H17.3527V20.2214V17.3964H20.1777Z" fill="#1669BB" stroke="#1669BB" stroke-width="0.35"/>
</g>
<defs>
<clipPath id="clip0_5131_3518">
<rect width="18" height="18" fill="white"/>
</clipPath>
</defs>
</svg>
