<svg width="24" height="23" viewBox="0 0 24 23" fill="none" xmlns="http://www.w3.org/2000/svg">
<path d="M4.84961 18.0044C4.84961 18.2805 5.07347 18.5044 5.34961 18.5044H14.3623L14.5615 19.5005H5.75391C4.72946 19.5005 3.89849 18.6494 3.89844 17.6001V14.5005H4.84961V18.0044ZM18.7383 6.19971V11.0005H17.7881V6.74561C17.7881 6.46957 17.5641 6.24578 17.2881 6.24561H12.7461C12.4702 6.24556 12.2464 6.0215 12.2461 5.74561V1.99561C12.2461 1.71946 12.0222 1.49561 11.7461 1.49561H5.34961C5.07363 1.49561 4.84987 1.71871 4.84961 1.99463V9.50049H3.89844V2.3999C3.89849 1.35061 4.72946 0.499512 5.75391 0.499512H13.1738L18.7383 6.19971Z" fill="#495057"/>
<path d="M14.0293 8.54736C14.5812 8.54759 15.029 8.99447 15.0293 9.54639V14.2524C15.0293 14.8046 14.5814 15.2522 14.0293 15.2524H1.26172C0.709434 15.2524 0.261719 14.8047 0.261719 14.2524V9.54736C0.261719 8.99508 0.709434 8.54736 1.26172 8.54736H14.0293ZM1.8457 14.394H2.84961V12.7046H3.28125C4.66401 12.7046 5.12305 11.9657 5.12305 11.1274C5.12299 10.2028 4.58447 9.64404 3.36133 9.64404H1.8457V14.394ZM6.02051 9.64404V14.394H7.36328C8.99201 14.394 9.95605 13.5755 9.95605 11.9722C9.95592 10.4556 8.9921 9.64407 7.50977 9.64404H6.02051ZM10.9404 9.64404V14.394H11.9307V12.5181H13.54V11.6929H11.9307V10.4692H13.6592V9.64404H10.9404ZM7.5625 10.4692C8.44002 10.4692 8.91211 10.955 8.91211 11.9995C8.91198 13.0437 8.42651 13.562 7.45605 13.562H7.02441V10.4692H7.5625ZM3.30762 10.4692C3.83929 10.4692 4.10531 10.7019 4.10547 11.1606C4.10547 11.6662 3.74671 11.8794 3.18164 11.8794H2.84961V10.4692H3.30762Z" fill="#495057"/>
<path d="M19.7614 13.3335V11.9585L17.9281 13.7918L19.7614 15.6252V14.2502C21.2785 14.2502 22.5114 15.4831 22.5114 17.0002C22.5114 17.4631 22.3968 17.9031 22.1906 18.2835L22.8597 18.9527C23.2172 18.3889 23.4281 17.7197 23.4281 17.0002C23.4281 14.9743 21.7872 13.3335 19.7614 13.3335ZM19.7614 19.7502C18.2443 19.7502 17.0114 18.5172 17.0114 17.0002C17.0114 16.5372 17.126 16.0972 17.3322 15.7168L16.6631 15.0477C16.3056 15.6114 16.0947 16.2806 16.0947 17.0002C16.0947 19.026 17.7356 20.6668 19.7614 20.6668V22.0418L21.5947 20.2085L19.7614 18.3752V19.7502Z" fill="#495057"/>
</svg>
