<svg width="24" height="24" viewBox="0 0 24 24" fill="none" xmlns="http://www.w3.org/2000/svg">
<path fill-rule="evenodd" clip-rule="evenodd" d="M3.5 9.67999C3.5 5.19799 7.0625 2.29999 11 2.29999C14.9375 2.29999 18.5 5.19799 18.5 9.67999C18.5 10.8084 18.143 12.015 17.4296 13.3005C14.7006 13.3381 12.5 15.5621 12.5 18.3C12.5 18.5307 12.5156 18.7577 12.5459 18.9801C12.0602 19.4134 11.545 19.8534 11 20.3C6.00313 16.205 3.5 12.668 3.5 9.67999ZM9.125 9.49999C9.125 10.49 9.96875 11.3 11 11.3C12.0312 11.3 12.875 10.49 12.875 9.49999C12.875 8.50999 12.0312 7.69999 11 7.69999C9.96875 7.69999 9.125 8.50999 9.125 9.49999Z" fill="#1669BB"/>
<path fill-rule="evenodd" clip-rule="evenodd" d="M19.5758 15.3L17.6333 17.2425L15.6908 15.3L14.6333 16.3575L16.5758 18.3L14.6333 20.2425L15.6908 21.3L17.6333 19.3575L19.5758 21.3L20.6333 20.2425L18.6908 18.3L20.6333 16.3575L19.5758 15.3Z" fill="#1669BB"/>
</svg>
