<svg width="18" height="18" viewBox="0 0 18 18" fill="none" xmlns="http://www.w3.org/2000/svg">
<path fill-rule="evenodd" clip-rule="evenodd" d="M3 7.785C3 4.4235 5.67188 2.25 8.625 2.25C11.5781 2.25 14.25 4.4235 14.25 7.785C14.25 8.63128 13.9823 9.53628 13.4472 10.5004C11.4005 10.5286 9.75 12.1966 9.75 14.25C9.75 14.423 9.76172 14.5933 9.7844 14.7601C9.42019 15.0851 9.03372 15.4151 8.625 15.75C4.87734 12.6788 3 10.026 3 7.785ZM7.21875 7.65C7.21875 8.3925 7.85156 9 8.625 9C9.39844 9 10.0312 8.3925 10.0312 7.65C10.0312 6.9075 9.39844 6.3 8.625 6.3C7.85156 6.3 7.21875 6.9075 7.21875 7.65Z" fill="#1669BB"/>
<path fill-rule="evenodd" clip-rule="evenodd" d="M16.2208 13.6893L14.1604 13.6893L14.1604 11.6289H13.0388L13.0388 13.6893L10.9785 13.6893L10.9785 14.8109L13.0388 14.8109V16.8713H14.1604V14.8109L16.2208 14.8109L16.2208 13.6893V13.6893Z" fill="#1669BB"/>
</svg>
