<?xml version="1.0" encoding="iso-8859-1"?>
<!-- Generator: Adobe Illustrator 28.5.0, SVG Export Plug-In . SVG Version: 9.03 Build 54727)  -->
<svg version="1.1" id="Layer_1" xmlns="http://www.w3.org/2000/svg" xmlns:xlink="http://www.w3.org/1999/xlink" x="0px" y="0px"
	 viewBox="0 0 21 22" style="enable-background:new 0 0 21 22;" xml:space="preserve">
<style type="text/css">
	.st0{fill-rule:evenodd;clip-rule:evenodd;fill:#38598A;fill-opacity:0.98;}
</style>
<path class="st0" d="M3.1,9c0-3.9,3.1-6.5,6.6-6.5c3.4,0,6.6,2.5,6.6,6.5c0,1-0.3,2-0.9,3.2c-2.4,0-4.3,2-4.3,4.4c0,0.2,0,0.4,0,0.6
	c-0.4,0.4-0.9,0.8-1.4,1.2C5.3,14.7,3.1,11.6,3.1,9z M8,8.8c0,0.9,0.7,1.6,1.6,1.6c0.9,0,1.6-0.7,1.6-1.6s-0.7-1.6-1.6-1.6
	C8.7,7.2,8,7.9,8,8.8z"/>
<path class="st0" d="M17.1,13.9l-1.7,1.7l-1.7-1.7l-0.9,0.9l1.7,1.7l-1.7,1.7l0.9,0.9l1.7-1.7l1.7,1.7l0.9-0.9l-1.7-1.7l1.7-1.7
	L17.1,13.9z"/>
</svg>
