<svg viewBox="0 0 18 18" fill="none" xmlns="http://www.w3.org/2000/svg">
<path fill-rule="evenodd" clip-rule="evenodd" d="M4.60026 17.3458H10.4336V15.6791H4.60026V3.17912H10.4336V7.34579H14.6003V11.5125H16.2669V6.51245L11.2669 1.51245H4.60026C3.68359 1.51245 2.93359 2.26245 2.93359 3.17912V15.6791C2.93359 16.5958 3.68359 17.3458 4.60026 17.3458ZM18.6276 17.0908H16.1276V19.5908H14.7109V17.0908H12.2109V15.6741H14.7109V13.1741H16.1276V15.6741H18.6276V17.0908ZM18.3356 16.7991V15.9658H18.3359V16.7991H15.8359V19.2991H15.0026V19.2991H15.8356V16.7991H18.3356ZM15.0023 16.7991V16.7991H12.5026V16.7991H15.0023ZM15.8356 15.9658V13.4658H15.8359V15.9658H15.8356ZM6.625 8.81519H12.4375V10H6.625V8.81519ZM12.4375 11.9293H6.625V13.1141H12.4375V11.9293Z" fill="#1669BB"/>
</svg>
